<?xml version="1.0" encoding="utf-8"?>
<svg version="1.1" xmlns:cc="http://creativecommons.org/ns#" xmlns:dc="http://purl.org/dc/elements/1.1/" xmlns:rdf="http://www.w3.org/1999/02/22-rdf-syntax-ns#" xmlns="http://www.w3.org/2000/svg" xmlns:xlink="http://www.w3.org/1999/xlink" x="0px" y="0px" viewBox="0 0 1024 768" xml:space="preserve">
<rect fill="#232323" width="1024" height="768" />

 
 <g id="logo-group" transform="translate(-139.6 -104.7) scale(1.2727)">
  <path id="path82766" style="font-variant-ligatures:normal" d="m372 399.86h-0.10296c-1.3385 0-2.574 0.61776-3.3977 1.7503-5.045 6.6924-12.87 11.017-21.622 11.017-15.135 0-27.49-12.87-27.49-28.623s12.355-28.52 27.49-28.52c8.7516 0 16.68 4.2214 21.622 10.914 0.82368 1.1326 2.1622 1.7503 3.5006 1.7503 3.5006 0 5.4569-4.0154 3.3977-6.8983-6.5894-8.7516-16.988-14.311-28.52-14.311-19.871 0-36.036 16.577-36.036 37.066s16.165 37.066 36.036 37.066c11.532 0 21.828-5.5598 28.52-14.311 2.0592-2.8829 0.10296-6.8983-3.3977-6.8983z" stroke-miterlimit="2" stroke-width="0" fill="#545454"/>
  <path id="path82768" style="font-variant-ligatures:normal" d="m438.37 369.17c0-11.634-9.5753-21.21-21.313-21.21h-25.74c-2.2651 0-4.2214 1.9562-4.2214 4.2214 0 2.3681 1.9562 4.3243 4.2214 4.3243h25.74c7.0013 0 12.767 5.6628 12.767 12.664 0 7.0013-5.7658 12.767-12.767 12.767h-25.74c-2.2651 0-4.1184 1.7503-4.2214 4.0154v29.858c0 2.2651 1.9562 4.2214 4.2214 4.2214 2.3681 0 4.3243-1.9562 4.3243-4.2214v-25.328h21.416c11.737 0 21.313-9.5753 21.313-21.313zm-18.533 33.565 8.9575 15.238c0.72072 1.2355 2.0592 2.0592 3.5006 2.0592 3.2947 0 5.251-3.5006 3.6036-6.2806l-8.9575-15.135c-0.72072-1.3385-2.0592-2.0592-3.5006-2.0592-3.2947 0-5.251 3.5006-3.6036 6.1776z" stroke-miterlimit="2" stroke-width="0" fill="#828282"/>
  <path id="path82770" style="font-variant-ligatures:normal" d="m485.78 380.09c3.2947-3.3977 5.4569-8.0309 5.4569-13.179 0-10.502-8.5457-18.945-18.945-18.945h-19.871c-2.2651 0-4.2214 1.9562-4.2214 4.2214 0 2.3681 1.9562 4.3243 4.2214 4.3243h19.871c5.6628 0 10.399 4.6332 10.399 10.399s-4.7362 10.399-10.399 10.399h-19.871c-2.2651 0-4.2214 1.8533-4.2214 4.2214s1.9562 4.3243 4.2214 4.3243h22.754c7.1042 0 12.87 5.7658 12.87 12.767 0 7.1042-5.7658 12.87-12.87 12.87h-22.754c-2.2651 0-4.2214 1.9562-4.2214 4.3243 0 2.2651 1.9562 4.2214 4.2214 4.2214h22.754c11.737 0 21.416-9.5753 21.416-21.416 0-7.9279-4.4273-14.826-10.811-18.533z" stroke-miterlimit="2" stroke-width="0" fill="#afafaf"/>
  <path id="path82772" style="font-variant-ligatures:normal" d="m562.53 347.96c-2.1622 0.20592-3.8095 2.2651-3.8095 4.4273v53.848l-26.255-37.58c-0.72072-1.1326-2.0592-1.8533-3.3977-1.8533-3.0888 0.10296-4.9421 3.6036-3.1918 6.1776l31.197 44.685c1.0296 1.4414 2.677 2.3681 4.5302 2.3681 3.0888 0 5.6628-2.471 5.6628-5.5598v-62.291c0-2.471-2.1622-4.4273-4.7362-4.2214zm-53.024 67.851c0 2.2651 1.9562 4.2214 4.2214 4.2214 2.3681 0 4.3243-1.9562 4.3243-4.2214v-63.629c0-2.2651-1.9562-4.2214-4.3243-4.2214-2.2651 0-4.2214 1.9562-4.2214 4.2214z" stroke-miterlimit="2" stroke-width="0" fill="#ddd"/>
  <path id="path82776" style="font-variant-ligatures:normal" d="m708.83 347.96c-2.2651 0-4.2214 1.9562-4.2214 4.2214v63.629c0 2.2651 1.9562 4.2214 4.2214 4.2214 2.3681 0 4.3243-1.9562 4.3243-4.2214v-63.629c0-2.2651-1.9562-4.2214-4.3243-4.2214z" stroke-miterlimit="2" stroke-width="0" fill="#d4af37"/>
  <path id="icon" stroke-width=".46498" fill="#d4af37" d="m651.31 348.65c-0.0106-0.0121-0.0367 0.005-0.0579 0.0388-0.0204 0.0339-6.9859 12.026-15.478 26.651-8.4915 14.623-15.462 26.629-15.491 26.675l-0.0509 0.084 5.3705-0.006 5.3701-0.006 10.142-17.461c5.5788-9.6051 10.153-17.473 10.165-17.485 0.0129-0.0129 5.4505 9.3215 12.805 21.983 7.0305 12.103 12.787 22.015 12.791 22.027 0.005 0.0119-8.5059 0.0214-18.913 0.0214-12.566 0-18.93 0.009-18.947 0.0258-0.0171 0.0171-4.0879 0.028-12.057 0.0323l-12.031 0.006-2.6274 4.5243-2.6274 4.5243 41.61 0.006c22.885 0.004 41.614 0.002 41.619-0.003s-9.3466-16.121-20.781-35.813c-11.434-19.693-20.799-35.815-20.81-35.827z"/>
 </g>

</svg>